# File generated by ImageToStl.com - Free Image and 3D model conversion tools

mtllib wet_floor_sign.mtl

# Wet_floor_sign_0
o obj1
v -1.28023624 29.06634426 -9.85988426
v -0.04731083 28.73598385 -9.85988426
v -0.73913288 26.15406704 -10.14732742
v -1.97205925 26.48442745 -10.14732742
v -1.97206497 26.48440456 10.1473484
v -0.73913956 26.15404415 10.1473484
v -0.04731083 28.73598385 9.85990143
v -1.28023624 29.06634426 9.85990143
v -16.81563568 -28.91255093 8.89228153
v -15.58270931 -29.24291134 8.89228153
v -15.58270931 -29.24291134 16.49151897
v -16.81563568 -28.91255093 16.49151897
v -1.97206593 26.48440456 6.001544
v -0.73913479 26.15406322 6.001544
v -1.97206593 26.48440456 -6.00154448
v -16.81563568 -28.91255093 -16.49150181
v -15.58270931 -29.24291134 -16.49150181
v -15.58270931 -29.24291134 -8.89228249
v -16.81563568 -28.91255093 -8.89228249
v -0.73913479 26.15406322 -6.00154448
v 0 28.91255093 -2.2E-07
v -1.23292637 29.24291134 -2.2E-07
v -1.92475605 26.66096401 9E-08
v -1.9667058 26.50440884 5.32164097
v -15.07032394 -22.39895916 -5.34441185
v -13.83739758 -22.72931957 -5.34441185
v -13.83739758 -22.72931957 5.34441328
v -15.07032394 -22.39895916 5.34441328
v -0.6918211 26.33064175 9E-08
v -0.73377514 26.17406368 5.3216424
v -15.21108723 -22.92429447 6.17642355
v -15.08761978 -22.46350765 5.6863637
v -15.13695908 -22.6476469 5.97800446
v -13.97816086 -23.25465488 6.17642355
v -13.97816086 -23.25465488 -6.1764226
v -15.21108723 -22.92429447 -6.1764226
v -1.92945385 21.71173 -10.67408085
v -3.16238022 22.04209042 -10.67408085
v -3.16238594 22.04206753 -5.99676895
v -2.98385477 22.70835781 -5.99748421
v -2.1481185 25.82736492 6.00083685
v -3.16238451 22.04207516 10.67409992
v -1.9294591 21.71171474 10.67409992
v -0.91518784 25.49702358 6.00083685
v -1.75092506 22.37800884 5.99748373
v -0.91518784 25.49702358 -6.00083733
v -3.16238594 22.04206753 5.99676847
v -1.92945576 21.71172619 5.99676847
v -13.85469341 -22.79386806 5.6863637
v -13.85469341 -22.79386806 -5.68636417
v -1.92945576 21.71172619 -5.99676895
v -3.16238451 22.04207516 5.30697918
v -1.92945385 21.71173 5.30697918
v -1.92945385 21.71173 -5.30697966
v -3.16238451 22.04207516 -5.30697966
v -2.98385477 22.70835781 5.99748373
v -1.75092506 22.37800884 -5.99748421
v -2.1481185 25.82736492 -6.00083733
v -1.9667058 26.50440884 -5.32164145
v -0.73377514 26.17406368 -5.32164288
v -15.13695908 -22.6476469 -5.9780035
v -15.08761978 -22.46350765 -5.68636417
v -13.90403366 -22.97800732 5.97800446
v -13.90403366 -22.97800732 -5.9780035
v -1.87717533 21.90683651 -5.7949872
v -3.11010695 22.23717403 -5.7949872
v -1.87717533 21.90683651 5.79498672
v -3.11010695 22.23717403 5.79498672
v -0.78882694 25.9686079 5.8033967
v -2.02175903 26.29894543 5.80339479
v -0.78882694 25.9686079 -5.80339718
v -2.02175903 26.29894543 -5.80339575
v 1.28023624 29.06634426 9.85988426
v 0.04731083 28.73598385 9.85988426
v 0.73913288 26.15406704 10.14732742
v 1.97205925 26.48442745 10.14732742
v 1.97206497 26.48440456 -10.1473484
v 0.73913956 26.15404415 -10.1473484
v 0.04731083 28.73598385 -9.85990143
v 1.28023624 29.06634426 -9.85990143
v 16.81563568 -28.91255093 -8.89228153
v 15.58271027 -29.24291134 -8.89228153
v 15.58271027 -29.24291134 -16.49151897
v 16.81563568 -28.91255093 -16.49151897
v 1.97206593 26.48440456 -6.00154448
v 0.73913479 26.15406322 -6.00154448
v 1.97206593 26.48440456 6.001544
v 16.81563568 -28.91255093 16.49150181
v 15.58271027 -29.24291134 16.49150181
v 15.58271027 -29.24291134 8.89228249
v 16.81563568 -28.91255093 8.89228249
v 0.73913479 26.15406322 6.001544
v 1.23292637 29.24291134 -2.2E-07
v 1.92475605 26.66096401 -5.4E-07
v 1.9667058 26.50440884 -5.32164145
v 15.07032394 -22.39895916 5.34441137
v 13.83739758 -22.72931957 5.34441137
v 13.83739758 -22.72931957 -5.34441376
v 15.07032394 -22.39895916 -5.34441376
v 0.6918211 26.33064175 -5.4E-07
v 0.73377514 26.17406368 -5.32164288
v 15.21108627 -22.92429447 -6.17642403
v 15.08761978 -22.46350765 -5.68636417
v 15.13695908 -22.6476469 -5.97800493
v 13.97816086 -23.25465488 -6.17642403
v 13.97816086 -23.25465488 6.17642212
v 15.21108627 -22.92429447 6.17642212
v 1.92945385 21.71173 10.67408085
v 3.16238022 22.04209042 10.67408085
v 3.16238594 22.04206753 5.99676847
v 2.98385477 22.70835781 5.99748373
v 2.1481185 25.82736492 -6.00083733
v 3.16238451 22.04207516 -10.67409992
v 1.9294591 21.71171474 -10.67409992
v 0.91518784 25.49702358 -6.00083733
v 1.75092506 22.37800884 -5.99748421
v 0.91518784 25.49702358 6.00083685
v 3.16238594 22.04206753 -5.99676895
v 1.92945576 21.71172619 -5.99676895
v 13.85469341 -22.79386806 -5.68636417
v 13.85469341 -22.79386806 5.6863637
v 1.92945576 21.71172619 5.99676847
v 3.16238451 22.04207516 -5.30697966
v 1.92945385 21.71173 -5.30697966
v 1.92945385 21.71173 5.30697918
v 3.16238451 22.04207516 5.30697918
v 2.98385477 22.70835781 -5.99748421
v 1.75092506 22.37800884 5.99748373
v 2.1481185 25.82736492 6.00083685
v 1.9667058 26.50440884 5.32164097
v 0.73377514 26.17406368 5.3216424
v 15.13695908 -22.6476469 5.97800303
v 15.08761978 -22.46350765 5.6863637
v 13.90403366 -22.97800732 -5.97800493
v 13.90403366 -22.97800732 5.97800303
v 1.87717533 21.90683651 5.79498672
v 3.11010695 22.23717403 5.79498672
v 1.87717533 21.90683651 -5.7949872
v 3.11010695 22.23717403 -5.7949872
v 0.78882694 25.9686079 -5.80339718
v 2.02175903 26.29894543 -5.80339527
v 0.78882694 25.9686079 5.8033967
v 2.02175903 26.29894543 5.80339527
vn 0.02767 0.10328 -0.99427
vn 0.02767 0.10328 -0.99427
vn 0.0288 0.10748 -0.99379
vn 0.0288 0.10748 0.99379
vn 0.0288 0.10748 0.99379
vn 0.02767 0.10328 0.99427
vn 0.02767 0.10328 0.99427
vn -0.25882 -0.96593 0
vn -0.96593 0.25882 0
vn -0.96593 0.25882 0
vn -0.96593 0.25882 0
vn 0.96593 -0.25882 0
vn 0.96593 -0.25882 -0
vn 0.96593 -0.25882 0
vn -0.96593 0.25882 0
vn -0.96593 0.25882 0
vn -0.96593 0.25882 0
vn 0.96593 -0.25882 0
vn 0.96593 -0.25882 0
vn 0.96593 -0.25882 0
vn 0.25877 0.96576 0.01854
vn 0.25882 0.96593 0
vn 0.25882 0.96593 -0
vn -0.96593 0.25882 0
vn -0.25881 -0.96591 0.00606
vn -0.25881 -0.96591 0.00606
vn -0.25881 -0.96591 -0.00606
vn -0.25881 -0.96591 -0.00606
vn 0.96593 -0.25882 0
vn 0.96593 -0.25882 0
vn 0.96593 -0.25882 -0
vn -0.96593 0.25882 -0
vn -0.96593 0.25882 -0
vn -0.96593 0.25882 -0
vn -0.10385 -0.38759 -0.91596
vn -0.10385 -0.38759 -0.91596
vn -0.10608 -0.39589 -0.91215
vn -0.10608 -0.39589 -0.91215
vn -0.10385 -0.38759 0.91596
vn -0.10608 -0.39589 0.91215
vn -0.10608 -0.39589 0.91215
vn 0.02846 0.1062 -0.99394
vn 0.02846 0.1062 -0.99394
vn -0.96593 0.25882 0
vn -0.96593 0.25882 0
vn -0.96593 0.25882 0
vn -0.96593 0.25882 0
vn 0.02846 0.1062 0.99394
vn 0.02846 0.1062 0.99394
vn 0.96593 -0.25882 0
vn 0.96593 -0.25882 -0
vn 0.96593 -0.25882 0
vn 0.96593 -0.25882 0
vn 0.02837 0.10588 -0.99397
vn 0.02837 0.10588 -0.99397
vn -0.96593 0.25882 -0
vn -0.96593 0.25882 -0
vn -0.96593 0.25882 -0
vn -0.96593 0.25882 -0
vn 0.02837 0.10588 0.99397
vn 0.02837 0.10588 0.99397
vn 0.96593 -0.25882 -0
vn 0.96593 -0.25882 -0
vn 0.96593 -0.25882 -0
vn 0.96593 -0.25882 0
vn 0.96593 -0.25882 0
vn 0.96593 -0.25882 0
vn 0.96593 -0.25882 0
vn 0.25876 0.96577 -0.01819
vn 0.25876 0.96577 -0.01819
vn 0.25876 0.96577 0.01819
vn 0.25876 0.96577 0.01819
vn -0.01349 -0.05036 -0.99864
vn -0.01349 -0.05037 -0.99864
vn 0.01431 0.05341 -0.99847
vn 0.01431 0.05342 -0.99847
vn -0.2588 -0.96593 0
vn -0.2588 -0.96593 -0
vn -0.25826 -0.96392 -0.06445
vn -0.25826 -0.96392 -0.06445
vn 0.01431 0.05342 0.99847
vn 0.01431 0.05341 0.99847
vn -0.01349 -0.05037 0.99864
vn -0.01349 -0.05036 0.99864
vn 0.25877 0.96576 -0.01854
vn -0.96593 0.25882 -0
vn -0.25826 -0.96392 0.06445
vn -0.25826 -0.96392 0.06445
vn 0.96593 -0.25882 0
vn -0.96593 0.25882 0
vn -0.96593 0.25882 0
vn -0.96593 0.25882 0
vn -0.96593 0.25882 0
vn 0.96593 -0.25882 0
vn 0.96593 -0.25882 0
vn 0.96593 -0.25882 0
vn -0.23978 -0.89487 0.37646
vn -0.23978 -0.89487 0.37646
vn -0.18546 -0.69214 0.69753
vn -0.18546 -0.69214 0.69753
vn -0.18546 -0.69214 -0.69753
vn -0.18546 -0.69214 -0.69753
vn -0.23978 -0.89487 -0.37646
vn -0.23978 -0.89487 -0.37646
vn 0.96593 -0.25882 0
vn 0.96593 -0.25882 0
vn -0.96593 0.25882 0
vn -0.96593 0.25882 -0
vn -0.96593 0.25882 0
vn 0.1831 0.68337 0.70674
vn 0.1831 0.68338 0.70673
vn 0.1831 0.68337 -0.70674
vn 0.1831 0.68338 -0.70673
vn -0.1801 -0.67218 -0.71815
vn -0.1801 -0.67217 -0.71816
vn -0.1801 -0.67218 0.71815
vn -0.1801 -0.67217 0.71816
vn -0.96593 0.25882 0
vn 0.96593 -0.25882 -0
vn 0.96593 -0.25882 -0
vn 0.96593 -0.25882 0
vn -0.96593 0.25882 -0
vn -0.96593 0.25882 -0
vn 0.96593 -0.25882 0
vn -0.96593 0.25882 0
vn 0.96593 -0.25882 0
vn -0.96593 0.25882 -0
vn -0.96593 0.25882 0
vn 0.96593 -0.25882 -1E-05
vn 0.96593 -0.25882 0
vn 0.96593 -0.25882 0
vn 0.96593 -0.25882 0
vn -0.96593 0.25882 0
vn -0.02767 0.10328 0.99427
vn -0.02767 0.10328 0.99427
vn -0.0288 0.10748 0.99379
vn -0.0288 0.10748 0.99379
vn -0.0288 0.10748 -0.99379
vn -0.02767 0.10328 -0.99427
vn -0.02767 0.10328 -0.99427
vn 0.25882 -0.96593 0
vn 0.96593 0.25882 -0
vn 0.96593 0.25882 -0
vn 0.96593 0.25882 -0
vn -0.96593 -0.25882 -0
vn -0.96593 -0.25882 0
vn -0.96593 -0.25882 -0
vn 0.96593 0.25882 -0
vn 0.96593 0.25882 -0
vn 0.96593 0.25882 0
vn 0.25882 -0.96593 0
vn -0.96593 -0.25882 -0
vn -0.96593 -0.25882 -0
vn -0.96593 -0.25882 -0
vn -0.25877 0.96576 -0.01854
vn -0.25882 0.96593 0
vn -0.25882 0.96593 0
vn 0.96593 0.25882 0
vn 0.96593 0.25882 0
vn 0.25881 -0.96591 -0.00606
vn 0.25881 -0.96591 -0.00606
vn 0.25881 -0.96591 0.00606
vn 0.25881 -0.96591 0.00606
vn -0.96593 -0.25882 0
vn -0.96593 -0.25882 -0
vn -0.96593 -0.25882 0
vn 0.96593 0.25882 0
vn 0.96593 0.25882 0
vn 0.96593 0.25882 0
vn 0.96593 0.25882 0
vn 0.10385 -0.38759 0.91596
vn 0.10385 -0.38759 0.91596
vn 0.10608 -0.39589 0.91215
vn 0.10608 -0.39589 0.91215
vn 0.10385 -0.38759 -0.91596
vn 0.10608 -0.39589 -0.91215
vn 0.10608 -0.39589 -0.91215
vn -0.02846 0.1062 0.99394
vn -0.02846 0.1062 0.99394
vn 0.96593 0.25882 -0
vn 0.96593 0.25882 -0
vn 0.96593 0.25882 -0
vn 0.96593 0.25882 0
vn -0.02846 0.1062 -0.99394
vn -0.02846 0.1062 -0.99394
vn -0.96593 -0.25882 -0
vn -0.96593 -0.25882 -0
vn -0.96593 -0.25882 -0
vn -0.96593 -0.25882 -0
vn -0.02837 0.10588 0.99397
vn -0.02837 0.10588 0.99397
vn 0.96593 0.25882 0
vn 0.96593 0.25882 0
vn 0.96593 0.25882 0
vn 0.96593 0.25882 0
vn -0.02837 0.10588 -0.99397
vn -0.02837 0.10588 -0.99397
vn -0.96593 -0.25882 -0
vn -0.96593 -0.25882 0
vn -0.96593 -0.25882 -0
vn -0.96593 -0.25882 -0
vn -0.96593 -0.25882 -0
vn -0.96593 -0.25882 -0
vn -0.96593 -0.25882 -0
vn -0.25876 0.96577 0.01819
vn -0.25876 0.96577 0.01819
vn -0.25876 0.96577 -0.01819
vn -0.25876 0.96577 -0.01819
vn 0.01349 -0.05036 0.99864
vn 0.01349 -0.05037 0.99864
vn -0.01431 0.05341 0.99847
vn -0.01431 0.05342 0.99847
vn 0.2588 -0.96593 0
vn 0.2588 -0.96593 0
vn 0.25826 -0.96392 0.06445
vn 0.25826 -0.96392 0.06445
vn -0.01431 0.05342 -0.99847
vn -0.01431 0.05341 -0.99847
vn 0.01349 -0.05037 -0.99864
vn 0.01349 -0.05036 -0.99864
vn -0.25877 0.96576 0.01854
vn 0.96593 0.25882 0
vn 0.25826 -0.96392 -0.06445
vn 0.25826 -0.96392 -0.06445
vn -0.96593 -0.25882 -0
vn 0.96593 0.25882 -0
vn 0.96593 0.25882 -0
vn 0.96593 0.25882 -0
vn 0.96593 0.25882 -0
vn -0.96593 -0.25882 0
vn -0.96593 -0.25882 0
vn -0.96593 -0.25882 0
vn 0.23978 -0.89487 -0.37646
vn 0.23978 -0.89487 -0.37646
vn 0.18546 -0.69214 -0.69753
vn 0.18546 -0.69214 -0.69753
vn 0.18546 -0.69214 0.69753
vn 0.18546 -0.69214 0.69753
vn 0.23978 -0.89487 0.37646
vn 0.23978 -0.89487 0.37646
vn -0.96593 -0.25882 -0
vn -0.96593 -0.25882 -0
vn 0.96593 0.25882 0
vn 0.96593 0.25882 0
vn 0.96593 0.25882 0
vn -0.1831 0.68337 -0.70674
vn -0.1831 0.68338 -0.70673
vn -0.1831 0.68337 0.70674
vn -0.1831 0.68338 0.70673
vn 0.1801 -0.67218 0.71815
vn 0.1801 -0.67217 0.71816
vn 0.1801 -0.67218 -0.71815
vn 0.1801 -0.67217 -0.71816
vn -0.96593 -0.25882 0
vn -0.96593 -0.25882 0
vn -0.96593 -0.25882 -0
vn 0.96593 0.25882 0
vn 0.96593 0.25882 0
vn -0.96593 -0.25882 0
vn 0.96593 0.25882 0
vn -0.96593 -0.25882 -0
vn 0.96593 0.25882 0
vn 0.96593 0.25882 -0
vn -0.96593 -0.25882 1E-05
vn -0.96593 -0.25882 0
vn -0.96593 -0.25882 0
vn -0.96593 -0.25882 0
vn 0.96593 0.25882 0
usemtl mat0
f 1//1 2//2 3//3
f 3//3 4//3 1//1
f 5//4 6//5 7//6
f 7//6 8//7 5//4
f 9//8 10//8 11//8
f 11//8 12//8 9//8
f 8//9 13//10 5//11
f 6//12 14//13 7//14
f 4//15 15//16 1//17
f 16//8 17//8 18//8
f 18//8 19//8 16//8
f 2//18 20//19 3//20
f 8//21 7//21 21//22
f 21//22 22//23 8//21
f 13//10 8//9 22//24
f 22//24 23//24 24//24
f 24//24 13//10 22//24
f 25//25 26//26 27//27
f 27//27 28//28 25//25
f 29//29 21//30 7//14
f 7//14 14//13 30//31
f 30//31 29//29 7//14
f 31//32 9//32 12//32
f 12//32 32//33 33//34
f 33//34 31//32 12//32
f 10//35 9//36 31//37
f 31//37 34//38 10//35
f 19//39 18//39 35//40
f 35//40 36//41 19//39
f 4//3 3//3 37//42
f 37//42 38//43 4//3
f 38//44 39//45 40//46
f 5//11 13//10 41//47
f 42//48 43//49 6//5
f 6//5 5//4 42//48
f 44//50 6//12 43//51
f 43//51 45//52 44//50
f 3//20 20//19 46//53
f 38//43 37//42 17//54
f 17//54 16//55 38//43
f 32//56 12//57 42//58
f 42//58 47//59 32//56
f 12//60 11//61 43//49
f 43//49 42//48 12//60
f 48//62 43//51 11//63
f 11//63 49//64 48//62
f 50//65 17//66 37//67
f 37//67 51//68 50//65
f 52//69 53//70 54//71
f 54//71 55//72 52//69
f 41//73 44//74 45//75
f 45//75 56//76 41//73
f 23//77 29//78 30//79
f 30//79 24//80 23//77
f 40//81 57//82 46//83
f 46//83 58//84 40//81
f 22//23 21//22 2//85
f 2//85 1//85 22//23
f 23//24 22//24 1//17
f 1//17 15//16 59//86
f 59//86 23//24 1//17
f 59//87 60//88 29//78
f 29//78 23//77 59//87
f 20//19 2//18 21//30
f 21//30 29//29 60//89
f 60//89 20//19 21//30
f 61//90 62//91 16//92
f 16//92 19//90 36//93
f 36//93 61//90 16//92
f 63//94 49//95 11//96
f 11//96 10//95 34//95
f 34//95 63//94 11//96
f 50//97 26//26 25//25
f 25//25 62//98 50//97
f 64//99 50//97 62//98
f 62//98 61//100 64//99
f 35//40 64//99 61//100
f 61//100 36//41 35//40
f 63//101 34//38 31//37
f 31//37 33//102 63//101
f 49//103 63//101 33//102
f 33//102 32//104 49//103
f 27//27 49//103 32//104
f 32//104 28//28 27//27
f 48//62 49//64 27//105
f 27//105 53//106 48//62
f 28//107 32//56 47//59
f 47//59 52//108 55//107
f 55//107 39//45 62//24
f 25//109 28//107 47//59
f 47//59 55//107 62//24
f 62//24 25//109 47//59
f 65//110 57//82 40//81
f 40//81 66//111 65//110
f 54//71 65//110 66//111
f 66//111 55//72 54//71
f 67//112 53//70 52//69
f 52//69 68//113 67//112
f 45//75 67//112 68//113
f 68//113 56//76 45//75
f 69//114 44//74 41//73
f 41//73 70//115 69//114
f 30//79 69//114 70//115
f 70//115 24//80 30//79
f 71//116 60//88 59//87
f 59//87 72//117 71//116
f 46//83 71//116 72//117
f 72//117 58//84 46//83
f 66//118 40//46 39//45
f 39//45 55//107 66//118
f 65//119 54//120 51//68
f 51//68 57//121 65//119
f 68//122 52//108 47//59
f 47//59 56//123 68//122
f 67//124 45//52 48//62
f 48//62 53//106 67//124
f 70//125 41//47 13//10
f 13//10 24//24 70//125
f 69//126 30//31 14//13
f 14//13 44//50 69//126
f 72//127 59//86 15//16
f 15//16 58//128 72//127
f 71//129 46//53 20//19
f 20//19 60//89 71//129
f 42//58 56//123 47//59
f 56//123 42//58 5//11
f 5//11 41//47 56//123
f 4//15 58//128 15//16
f 58//128 4//15 38//44
f 38//44 40//46 58//128
f 6//12 44//50 14//13
f 43//51 48//62 45//52
f 37//67 57//121 51//68
f 57//121 37//67 3//20
f 3//20 46//53 57//121
f 26//29 50//65 51//68
f 51//68 54//120 26//29
f 53//106 27//105 26//29
f 26//29 54//120 53//106
f 35//130 18//131 17//131
f 17//131 50//130 64//132
f 64//132 35//130 17//131
f 39//45 38//44 16//133
f 16//133 62//24 39//45
f 73//134 74//135 75//136
f 75//136 76//137 73//134
f 77//138 78//138 79//139
f 79//139 80//140 77//138
f 81//141 82//141 83//141
f 83//141 84//141 81//141
f 80//142 85//143 77//144
f 78//145 86//146 79//147
f 76//148 87//149 73//150
f 88//151 89//151 90//151
f 90//151 91//151 88//151
f 74//152 92//153 75//154
f 80//155 79//155 21//156
f 21//156 93//157 80//155
f 85//143 80//142 93//158
f 93//158 94//158 95//159
f 95//159 85//143 93//158
f 96//160 97//161 98//162
f 98//162 99//163 96//160
f 100//164 21//165 79//147
f 79//147 86//146 101//166
f 101//166 100//164 79//147
f 102//167 81//168 84//169
f 84//169 103//170 104//170
f 104//170 102//167 84//169
f 82//171 81//172 102//173
f 102//173 105//174 82//171
f 91//175 90//175 106//176
f 106//176 107//177 91//175
f 76//137 75//136 108//178
f 108//178 109//179 76//137
f 109//180 110//181 111//182
f 77//144 85//143 112//183
f 113//184 114//185 78//138
f 78//138 77//138 113//184
f 115//186 78//145 114//187
f 114//187 116//188 115//186
f 75//154 92//153 117//189
f 109//179 108//178 89//190
f 89//190 88//191 109//179
f 103//192 84//193 113//194
f 113//194 118//195 103//192
f 84//196 83//197 114//185
f 114//185 113//184 84//196
f 119//198 114//187 83//199
f 83//199 120//200 119//198
f 121//201 89//202 108//203
f 108//203 122//204 121//201
f 123//205 124//206 125//207
f 125//207 126//208 123//205
f 112//209 115//210 116//211
f 116//211 127//212 112//209
f 94//213 100//214 101//215
f 101//215 95//216 94//213
f 111//217 128//218 117//219
f 117//219 129//220 111//217
f 93//157 21//156 74//221
f 74//221 73//221 93//157
f 94//158 93//158 73//150
f 73//150 87//149 130//222
f 130//222 94//158 73//150
f 130//223 131//224 100//214
f 100//214 94//213 130//223
f 92//153 74//152 21//165
f 21//165 100//164 131//225
f 131//225 92//153 21//165
f 132//226 133//227 88//228
f 88//228 91//229 107//228
f 107//228 132//226 88//228
f 134//230 120//230 83//231
f 83//231 82//230 105//232
f 105//232 134//230 83//231
f 121//233 97//161 96//160
f 96//160 133//234 121//233
f 135//235 121//233 133//234
f 133//234 132//236 135//235
f 106//176 135//235 132//236
f 132//236 107//177 106//176
f 134//237 105//174 102//173
f 102//173 104//238 134//237
f 120//239 134//237 104//238
f 104//238 103//240 120//239
f 98//162 120//239 103//240
f 103//240 99//163 98//162
f 119//198 120//200 98//241
f 98//241 124//242 119//198
f 99//243 103//192 118//195
f 118//195 123//244 126//243
f 126//243 110//181 133//245
f 96//243 99//243 118//195
f 118//195 126//243 133//245
f 133//245 96//243 118//195
f 136//246 128//218 111//217
f 111//217 137//247 136//246
f 125//207 136//246 137//247
f 137//247 126//208 125//207
f 138//248 124//206 123//205
f 123//205 139//249 138//248
f 116//211 138//248 139//249
f 139//249 127//212 116//211
f 140//250 115//210 112//209
f 112//209 141//251 140//250
f 101//215 140//250 141//251
f 141//251 95//216 101//215
f 142//252 131//224 130//223
f 130//223 143//253 142//252
f 117//219 142//252 143//253
f 143//253 129//220 117//219
f 137//243 111//182 110//181
f 110//181 126//243 137//243
f 136//254 125//255 122//204
f 122//204 128//256 136//254
f 139//257 123//244 118//195
f 118//195 127//258 139//257
f 138//259 116//188 119//198
f 119//198 124//242 138//259
f 141//260 112//183 85//143
f 85//143 95//159 141//260
f 140//261 101//166 86//146
f 86//146 115//186 140//261
f 143//262 130//222 87//149
f 87//149 129//263 143//262
f 142//264 117//189 92//153
f 92//153 131//225 142//264
f 113//194 127//258 118//195
f 127//258 113//194 77//144
f 77//144 112//183 127//258
f 76//148 129//263 87//149
f 129//263 76//148 109//180
f 109//180 111//182 129//263
f 78//145 115//186 86//146
f 114//187 119//198 116//188
f 108//203 128//256 122//204
f 128//256 108//203 75//154
f 75//154 117//189 128//256
f 97//265 121//201 122//204
f 122//204 125//255 97//265
f 124//242 98//241 97//265
f 97//265 125//255 124//242
f 106//266 90//266 89//267
f 89//267 121//267 135//267
f 135//267 106//266 89//267
f 110//181 109//180 88//268
f 88//268 133//245 110//181
# Vertices: 143, normals: 268, texture coordinates: 0, faces: 288

